<svg xmlns="http://www.w3.org/2000/svg" viewBox="0 0 64 64">
  <defs>
    <radialGradient id="grad" cx="20%" cy="20%" r="80%">
      <stop offset="0%" stop-color="#f7dba7" />
      <stop offset="38%" stop-color="#f1b86c" />
      <stop offset="100%" stop-color="#c6792d" />
    </radialGradient>
  </defs>
  <rect x="4" y="4" width="56" height="56" rx="18" fill="url(#grad)" />
  <circle cx="32" cy="32" r="23" fill="none" stroke="rgba(255,255,255,0.7)" stroke-width="2" />
  <path
    fill="rgba(17,24,39,0.9)"
    d="M18.5 41.5c5.6-.5 10.2-3 13.2-7.8l1.7-2.8l1.7 2.8c3 4.8 7.7 7.3 13.2 7.8l-4.4-7.1c-1.9-.2-3.7-1.3-5.3-3.6L32 23l-6.6 10.8c-1.6 2.5-3.4 3.5-5.3 3.6z"
  />
  <path
    fill="#fff"
    d="M27.5 45.5h7c4.5 0 7.8-2.4 7.8-6.9c0-3.4-1.8-5.5-4.9-6.3l3.1-5.1h-6l-2.3 3.9h-1.7v-3.9h-4.3zm4.3-4.1v-3.7h1.6c1.7 0 2.5.7 2.5 1.8c0 1.2-.8 1.9-2.6 1.9z"
  />
</svg>

